<?xml version="1.0" standalone="no"?>
<!DOCTYPE svg PUBLIC "-//W3C//DTD SVG 20010904//EN"
 "http://www.w3.org/TR/2001/REC-SVG-20010904/DTD/svg10.dtd">
<svg version="1.0" xmlns="http://www.w3.org/2000/svg"
 width="1000.000000pt" height="1000.000000pt" viewBox="0 0 1000.000000 1000.000000"
 preserveAspectRatio="xMidYMid meet">
<metadata>
Created by potrace 1.14, written by Peter Selinger 2001-2017
</metadata>
<g transform="translate(0.000000,1000.000000) scale(0.100000,-0.100000)"
fill="#000000" stroke="none">
<path d="M2363 5020 l0 -1910 467 0 467 0 2 1122 c1 617 3 1123 5 1125 1 2 67
-102 146 -229 78 -128 157 -255 175 -283 33 -52 288 -465 308 -500 14 -25 63
-104 103 -167 56 -89 102 -165 345 -560 134 -219 247 -397 251 -395 4 1 46 63
93 137 47 74 90 142 95 150 9 14 63 98 151 238 21 31 130 203 244 382 114 179
209 330 212 336 3 9 -93 167 -225 370 -45 70 -80 124 -149 232 -43 67 -114
178 -158 247 -44 68 -113 176 -154 240 -41 64 -78 118 -82 120 -4 3 -7 -222
-6 -500 1 -278 1 -505 0 -505 -2 0 -237 393 -242 405 -2 5 -21 37 -41 70 -21
33 -111 184 -200 335 -89 151 -175 295 -190 320 -15 25 -94 158 -176 295 -82
138 -154 259 -161 270 -7 11 -15 27 -19 35 -4 8 -15 26 -24 40 -10 14 -26 41
-37 60 -10 19 -72 124 -136 233 l-118 197 -473 0 -473 0 0 -1910z"/>
<path d="M4654 6440 l-1 -490 469 0 468 0 0 490 0 490 -468 0 -468 0 0 -490z"/>
<path d="M4697 5862 c-21 -2 -37 -7 -35 -11 2 -4 41 -66 88 -139 47 -73 92
-143 100 -157 17 -28 245 -385 326 -510 183 -283 357 -562 357 -571 0 -6 -65
-113 -144 -237 -79 -125 -151 -238 -159 -251 -8 -13 -55 -88 -105 -166 -49
-78 -97 -153 -105 -166 -8 -13 -87 -137 -175 -275 -88 -139 -161 -256 -163
-260 -2 -5 197 -9 447 -9 l451 0 27 43 c16 23 31 44 36 45 4 2 7 8 7 13 0 5
15 31 33 57 18 26 91 136 161 245 70 108 131 197 135 197 4 0 13 -10 19 -22 7
-13 18 -31 24 -41 7 -11 90 -134 184 -275 l170 -257 453 -3 c249 -1 451 1 449
5 -23 48 -33 63 -40 63 -4 0 -8 4 -8 9 0 5 -75 128 -167 273 -93 146 -172 272
-178 280 -80 128 -286 449 -344 538 -94 145 -104 173 -96 267 26 313 261 565
581 622 57 10 211 5 265 -8 51 -13 142 -52 147 -63 2 -5 8 -8 13 -8 22 0 93
-79 155 -171 98 -146 129 -168 334 -244 82 -31 114 -48 146 -81 42 -41 43 -44
60 -159 15 -100 84 -165 175 -165 104 0 179 76 184 188 10 227 -102 599 -231
769 -13 17 -24 36 -24 41 0 6 -4 12 -8 14 -4 2 -29 31 -54 64 -95 124 -272
271 -428 357 -116 63 -302 127 -415 143 -16 2 -50 7 -75 10 -56 7 -217 7 -289
-1 -296 -32 -599 -175 -808 -382 -79 -78 -151 -163 -185 -216 -4 -6 -8 -9 -10
-7 -10 14 -66 102 -154 240 -130 208 -181 287 -213 334 l-26 39 -425 1 c-234
1 -442 0 -463 -2z"/>
<path d="M7045 5103 c-162 -33 -261 -82 -360 -180 -42 -42 -135 -171 -135
-188 0 -3 22 17 49 44 114 116 260 178 420 179 112 0 178 -15 280 -64 91 -44
201 -150 248 -240 55 -104 108 -135 216 -127 87 6 103 2 152 -42 42 -37 101
-69 148 -80 25 -7 27 -5 27 27 0 97 -39 132 -215 195 -162 58 -217 101 -307
238 -119 179 -215 235 -413 240 -49 1 -99 0 -110 -2z"/>
<path d="M6895 4875 c-149 -40 -276 -139 -340 -265 l-23 -46 62 61 c99 97 226
147 364 144 72 -2 100 -10 302 -83 95 -35 200 -42 200 -14 0 16 -91 101 -145
135 -113 71 -297 101 -420 68z"/>
<path d="M8491 4231 c-6 -10 -42 -37 -80 -60 -108 -64 -136 -119 -86 -165 74
-69 170 27 183 181 5 65 0 77 -17 44z"/>
</g>
</svg>
